<?xml version="1.0" standalone="no"?><!DOCTYPE svg PUBLIC "-//W3C//DTD SVG 1.1//EN" "http://www.w3.org/Graphics/SVG/1.1/DTD/svg11.dtd"><svg width="200" height="200" viewBox="0 0 200 200" version="1.1" xmlns="http://www.w3.org/2000/svg" xmlns:xlink="http://www.w3.org/1999/xlink"><defs><style type="text/css"><![CDATA[
@font-face { font-family: ifont; src: url("http://at.alicdn.com/t/font_1442373896_4754455.eot?#iefix") format("embedded-opentype"), url("http://at.alicdn.com/t/font_1442373896_4754455.woff") format("woff"), url("http://at.alicdn.com/t/font_1442373896_4754455.ttf") format("truetype"), url("http://at.alicdn.com/t/font_1442373896_4754455.svg#ifont") format("svg"); }

]]></style></defs><g class="transform-group"><g transform="scale(0.1953125, 0.1953125)"><path d="M512 4.836531c280.097364 0 507.163469 227.066105 507.163469 507.173503 0 280.08733-227.066105 507.153435-507.163469 507.153435S4.836531 792.097364 4.836531 512.010034C4.836531 231.902636 231.902636 4.836531 512 4.836531zM523.679922 236.959922c-151.658364 0-275.040078 123.391749-275.040078 275.050113 0 151.648329 123.381715 275.009976 275.040078 275.009976 151.648329 0 275.02001-123.361646 275.02001-275.009976C798.699931 360.351671 675.328251 236.959922 523.679922 236.959922L523.679922 236.959922zM523.679922 741.183341c-126.392004 0-229.20341-102.781303-229.20341-229.173307 0-126.402038 102.82144-229.213444 229.20341-229.213444 126.371935 0 229.183341 102.811406 229.183341 229.213444C752.863263 638.402038 650.051857 741.183341 523.679922 741.183341L523.679922 741.183341zM630.193983 579.410407l-95.074963-54.977913L535.11902 374.479961c0-12.663283-10.265086-22.928368-22.9083-22.928368-12.653248 0-22.918334 10.265086-22.918334 22.928368l0 160.438373c0 8.509084 10.576149 15.643469 17.439608 19.556845 1.906516 2.879843 7.124351 5.468692 10.315257 7.315002l94.523077 57.285801c10.957452 6.35171 22.828025 2.588849 29.159667-8.368604C647.071671 599.729858 641.171504 585.742048 630.193983 579.410407L630.193983 579.410407z" fill="#37C2C0"></path></g></g></svg>